<svg xmlns="http://www.w3.org/2000/svg" xmlns:xlink="http://www.w3.org/1999/xlink" viewBox="0 0 801.15 238.3"><defs><style>.cls-1{fill:none;}.cls-2{clip-path:url(#clip-path);}.cls-3{fill:#fff;}</style><clipPath id="clip-path"><rect class="cls-1" width="801.15" height="238.3"/></clipPath></defs><title>logo</title><g id="Layer_2" data-name="Layer 2"><g id="Layer_1-2" data-name="Layer 1"><g class="cls-2"><path class="cls-3" d="M776.26,235.78a14.09,14.09,0,0,0,.7-3.36q0-2-2.23-2H762.41V204.74l28.39-51.88,9.37-1.12a4.45,4.45,0,0,0,1-2.8,4,4,0,0,0-.56-2.24h-27l-.28,1.12a13.89,13.89,0,0,0-.7,3.36q0,2,2.23,2H783L759.06,198l-24.19-45.16,9.37-1.12a4.45,4.45,0,0,0,1-2.8,4,4,0,0,0-.56-2.24H717l-.28,1.12a14.08,14.08,0,0,0-.7,3.36q0,2,2.23,2h8.11l28.25,51.6v26L741,231.87a4.44,4.44,0,0,0-1,2.8,4,4,0,0,0,.56,2.24H776ZM668.87,201.24l16.64-43.91,16.64,43.91Zm62.37,34.54a14,14,0,0,0,.7-3.36q0-2-2.24-2h-8.11l-32.58-84a17,17,0,0,0-6.15,0l-32.72,84.32-9.37,1.12a4.44,4.44,0,0,0-1,2.8,4,4,0,0,0,.56,2.24h26.85l.28-1.12a14.09,14.09,0,0,0,.7-3.36q0-2-2.24-2h-8.11l8.67-22.94h38l8.95,23.21-9.37,1.12a4.44,4.44,0,0,0-1,2.8,4,4,0,0,0,.56,2.24H731Zm-109.94,1.68a15.77,15.77,0,0,0,3.08-.28l24.47-84.32,9.37-1.12a4.42,4.42,0,0,0,1-2.8,4,4,0,0,0-.56-2.24H631.92l-.28,1.12a13.89,13.89,0,0,0-.7,3.36q0,2,2.23,2h8.11l-19.72,69.78L598.5,146.43a17,17,0,0,0-6.15,0l-23.77,76.21L549,152.86l9.37-1.12a4.44,4.44,0,0,0,1-2.8,4,4,0,0,0-.56-2.24h-27.4l-.28,1.12a14,14,0,0,0-.7,3.36q0,2,2.24,2h8.11l24.47,84a17,17,0,0,0,6.15,0L595,161.11l23.21,76.07a15.83,15.83,0,0,0,3.08.28M468.18,153.14h19.57q9.37,0,14.83,5.66a20.48,20.48,0,0,1,0,27.83q-5.46,5.66-14.83,5.66H468.18Zm42.09,81.46a12.79,12.79,0,0,0,8.11,2.87,27,27,0,0,0,8.95-1.68,11.43,11.43,0,0,0-1.26-5.17c-.65.09-1.42.16-2.3.21s-1.7.07-2.45.07a9.57,9.57,0,0,1-5.59-1.47q-2.1-1.47-4.75-5.94l-15.38-25.59a24.52,24.52,0,0,0,18.67-15.17,27.71,27.71,0,0,0,2-10,27,27,0,0,0-1.54-8.6,26.4,26.4,0,0,0-4.89-8.53,24.33,24.33,0,0,0-8.81-6.43,32.46,32.46,0,0,0-13.29-2.44H451l-.28,1.12a14.08,14.08,0,0,0-.7,3.36c0,1.3.74,2,2.23,2h8.11v77.61L451,231.87a4.43,4.43,0,0,0-1,2.8,4,4,0,0,0,.56,2.24h27l.28-1.12a14.21,14.21,0,0,0,.7-3.36q0-2-2.24-2h-8.11V198.72h19.44L503,225.43a32,32,0,0,0,7.27,9.16m-90.82-2.1A39,39,0,0,0,434,216.27q5.17-10.41,5.17-24.54T434,167.33a39,39,0,0,0-14.54-16.22,43.9,43.9,0,0,0-43.63,0,39,39,0,0,0-14.54,16.22q-5.18,10.42-5.17,24.4t5.17,24.54a39,39,0,0,0,14.54,16.22,43.92,43.92,0,0,0,43.63,0m-39.37-5.74a32.59,32.59,0,0,1-11.6-13.91q-4.12-8.95-4.13-21.12a49.68,49.68,0,0,1,4.13-21,32.65,32.65,0,0,1,11.6-13.92,33.51,33.51,0,0,1,35.1,0,32.66,32.66,0,0,1,11.61,13.92,49.74,49.74,0,0,1,4.12,21,50.21,50.21,0,0,1-4.12,21,32.52,32.52,0,0,1-11.61,14,33.49,33.49,0,0,1-35.1,0m-45,10.35a15.45,15.45,0,0,0,2.72-.91V152.86l9.37-1.12a4.44,4.44,0,0,0,1-2.8,4,4,0,0,0-.56-2.24H321.15l-.28,1.12a13.89,13.89,0,0,0-.7,3.36q0,2,2.23,2h8.11v68.52L279.9,146.71H262.55l-.28,1.12a14.14,14.14,0,0,0-.7,3.36q0,2,2.24,2h8.11v77.61l-9.37,1.12a4.46,4.46,0,0,0-1,2.8,4,4,0,0,0,.56,2.24h26.43l.28-1.12a14.2,14.2,0,0,0,.7-3.36q0-2-2.24-2H279.2V159.15l53,78.45a22.36,22.36,0,0,0,2.87-.49"/><path class="cls-3" d="M91.92,137c0,22.58-3.5,38.49-10.42,47.3C74.74,192.86,65.65,197,53.73,197s-21-4.19-27.78-12.8C19,175.45,15.54,159.54,15.54,137V63.7H0V137c0,24.57,4.42,43.4,13.13,56,9,13,22.7,19.66,40.6,19.66s31.55-6.62,40.6-19.66c8.71-12.57,13.13-31.4,13.13-56V63.7H91.92Z"/><rect class="cls-3" x="14.01" y="225.69" width="79.43" height="12.61"/><path class="cls-3" d="M226.16,111.55a20.48,20.48,0,0,0-.37-3.86c-1-13.31-6.89-23.95-17.51-31.64C197,67.86,180.18,63.7,158.43,63.7H119.25l15.54,15.54h23.64c12.86,0,52,0,52,32.71,0,11.5-4.57,19.66-13.94,24.95-7.68,4.31-19.53,7.37-37.84,7.37l-17.7-.11-11.44-.43v93.86L145.05,222V159.8h13.57c18.27,0,33-2.94,44-8.73l.57-.09.66-.36c9.87-5.53,16.47-13.22,19.74-23a48.07,48.07,0,0,0,2.6-16.11"/><polygon class="cls-3" points="234.71 26.75 232.18 21.79 216.4 27.21 232.03 31.98 234.71 26.75"/><polygon class="cls-3" points="238.18 37.71 243.61 53.49 248.38 37.85 243.14 35.18 238.18 37.71"/><polygon class="cls-3" points="248.88 26.75 256.65 13.23 243.14 20.89 229.63 13.23 237.49 26.75 229.63 40.26 243.14 32.53 256.65 40.26 248.88 26.75"/><polygon class="cls-3" points="254.11 31.7 269.89 26.28 254.25 21.5 251.58 26.75 254.11 31.7"/><polygon class="cls-3" points="243.14 18.31 248.1 15.78 242.68 0 237.9 15.64 243.14 18.31"/></g></g></g></svg>