<svg xmlns="http://www.w3.org/2000/svg" xmlns:xlink="http://www.w3.org/1999/xlink" viewBox="0 0 634.34 193"><defs><style>.cls-1{fill:none;}.cls-2{clip-path:url(#clip-path);}.cls-3{fill:#c04b38;}.cls-4{fill:#48433e;}</style><clipPath id="clip-path" transform="translate(0 0)"><rect class="cls-1" width="634.34" height="193"/></clipPath></defs><title>logo-color</title><g id="Layer_2" data-name="Layer 2"><g id="Layer_1-2" data-name="Layer 1"><g class="cls-2"><path class="cls-3" d="M72.78,112.59c0,17.88-2.77,30.48-8.25,37.45-5.35,6.82-12.55,10.13-22,10.13s-16.64-3.31-22-10.14-8.25-19.57-8.25-37.45v-58H0v58C0,132,3.5,146.95,10.4,156.9c7.16,10.33,18,15.57,32.14,15.57s25-5.24,32.14-15.57c6.9-10,10.4-24.86,10.4-44.31v-58H72.78Z" transform="translate(0 0)"/><rect class="cls-3" x="11.09" y="182.84" width="62.89" height="9.98"/><path class="cls-3" d="M179.07,92.47a16.22,16.22,0,0,0-.3-3.06c-.81-10.54-5.45-19-13.87-25.05-9-6.49-22.24-9.78-39.47-9.78h-31l12.31,12.3h18.72c10.18,0,41.17,0,41.17,25.9,0,9.1-3.62,15.57-11,19.75-6.08,3.41-15.46,5.83-30,5.83l-14-.08-9.05-.34v74.31L114.85,180V130.68H125.6c14.47,0,26.14-2.33,34.81-6.91l.45-.07.52-.29c7.82-4.38,13-10.46,15.63-18.17a38.06,38.06,0,0,0,2.06-12.76" transform="translate(0 0)"/><path class="cls-3" d="M201.79,30.4l16.05-5.52L201.9,20l4.25-8.33-8.56,4.36L192.08,0l-4.87,15.94-8.33-4.25,4.37,8.56L167.2,25.76l15.94,4.86L178.88,39l8.56-4.36L193,50.64l4.86-15.94L206.15,39Zm-9.27-11.76-4.15-2.12,3.78-12.38,4.3,12.49Zm0,1.44,10.7-5.46-5.46,10.7L203.22,36l-10.7-5.46L181.82,36l5.46-10.7-5.46-10.7Zm0,11.92,4.15,2.12L192.89,46.5,188.59,34Zm6.68-6.68,2.12-4.15L213.69,25l-12.49,4.3Zm-27.86.37,12.49-4.3,2,3.93-2.12,4.15Z" transform="translate(0 0)"/><path class="cls-4" d="M614.63,191a11.15,11.15,0,0,0,.55-2.66q0-1.55-1.77-1.55h-9.75V166.43l22.47-41.08,7.42-.89a3.52,3.52,0,0,0,.78-2.21,3.16,3.16,0,0,0-.44-1.77H612.53l-.22.88a11,11,0,0,0-.55,2.66q0,1.55,1.77,1.55h6.42L601,161.11l-19.16-35.76,7.42-.89a3.52,3.52,0,0,0,.78-2.21,3.16,3.16,0,0,0-.44-1.77H567.69l-.22.88a11.15,11.15,0,0,0-.55,2.66q0,1.55,1.77,1.55h6.42l22.37,40.86V187l-10.74.89a3.51,3.51,0,0,0-.78,2.21,3.14,3.14,0,0,0,.44,1.77h28Zm-85-27.35,13.18-34.77L556,163.66ZM579,191a11.11,11.11,0,0,0,.55-2.66q0-1.55-1.77-1.55h-6.42l-25.8-66.54a13.49,13.49,0,0,0-4.87,0L514.77,187l-7.42.89a3.51,3.51,0,0,0-.78,2.21,3.13,3.13,0,0,0,.44,1.77h21.26l.22-.88a11.15,11.15,0,0,0,.55-2.66q0-1.55-1.77-1.55h-6.42l6.86-18.16h30.12L564.92,187l-7.42.89a3.51,3.51,0,0,0-.78,2.21,3.14,3.14,0,0,0,.44,1.77h21.59Zm-87.05,1.33a12.49,12.49,0,0,0,2.44-.22l19.38-66.76,7.42-.89a3.5,3.5,0,0,0,.78-2.21,3.16,3.16,0,0,0-.44-1.77H500.35l-.22.88a11,11,0,0,0-.55,2.66q0,1.55,1.77,1.55h6.42l-15.61,55.25-18.27-60.56a13.47,13.47,0,0,0-4.87,0L450.19,180.6l-15.5-55.25,7.42-.89a3.52,3.52,0,0,0,.77-2.21,3.16,3.16,0,0,0-.44-1.77h-21.7l-.22.88A11,11,0,0,0,420,124q0,1.55,1.77,1.55h6.42l19.38,66.54a13.49,13.49,0,0,0,4.87,0l18.71-60.23,18.38,60.23a12.54,12.54,0,0,0,2.44.22M370.7,125.57h15.5q7.42,0,11.74,4.48a16.21,16.21,0,0,1,0,22q-4.32,4.48-11.74,4.48H370.7ZM404,190.07a10.13,10.13,0,0,0,6.42,2.27,21.38,21.38,0,0,0,7.09-1.33,9.05,9.05,0,0,0-1-4.1c-.52.07-1.13.13-1.82.17s-1.35.06-1.94.06a7.58,7.58,0,0,1-4.43-1.16,15.48,15.48,0,0,1-3.76-4.71L392.4,161a19.41,19.41,0,0,0,14.78-12,21.93,21.93,0,0,0,1.61-7.92,21.34,21.34,0,0,0-1.22-6.81,20.9,20.9,0,0,0-3.87-6.75,19.26,19.26,0,0,0-7-5.09,25.7,25.7,0,0,0-10.52-1.94H357.08l-.22.88a11.15,11.15,0,0,0-.55,2.66q0,1.55,1.77,1.55h6.42V187l-7.42.89a3.51,3.51,0,0,0-.77,2.21,3.16,3.16,0,0,0,.44,1.77h21.37l.22-.88a11.25,11.25,0,0,0,.55-2.66q0-1.55-1.77-1.55H370.7V161.67h15.39l12.18,21.15a25.34,25.34,0,0,0,5.76,7.25m-71.91-1.66a30.9,30.9,0,0,0,11.51-12.85,43.22,43.22,0,0,0,4.1-19.43,43,43,0,0,0-4.1-19.32A30.91,30.91,0,0,0,332.11,124a34.76,34.76,0,0,0-34.54,0,30.85,30.85,0,0,0-11.51,12.84,42.93,42.93,0,0,0-4.1,19.32,43.19,43.19,0,0,0,4.1,19.43,30.84,30.84,0,0,0,11.51,12.85,34.78,34.78,0,0,0,34.54,0m-31.17-4.54a25.8,25.8,0,0,1-9.19-11,39.63,39.63,0,0,1-3.27-16.72,39.34,39.34,0,0,1,3.27-16.61,25.85,25.85,0,0,1,9.19-11,26.53,26.53,0,0,1,27.79,0,25.86,25.86,0,0,1,9.19,11,39.38,39.38,0,0,1,3.26,16.61,39.75,39.75,0,0,1-3.26,16.66,25.75,25.75,0,0,1-9.19,11.07,26.52,26.52,0,0,1-27.79,0m-35.65,8.2a12.23,12.23,0,0,0,2.16-.72v-66l7.42-.89a3.52,3.52,0,0,0,.78-2.21,3.16,3.16,0,0,0-.44-1.77H254.28l-.22.88a11,11,0,0,0-.55,2.66q0,1.55,1.77,1.55h6.42v54.25l-40.08-59.34H207.89l-.22.88a11.19,11.19,0,0,0-.55,2.66q0,1.55,1.77,1.55h6.42V187l-7.42.89a3.53,3.53,0,0,0-.78,2.21,3.16,3.16,0,0,0,.44,1.77h20.93l.22-.88a11.25,11.25,0,0,0,.55-2.66q0-1.55-1.77-1.55h-6.42V130.33l42,62.11a17.7,17.7,0,0,0,2.27-.39" transform="translate(0 0)"/></g></g></g></svg>